<svg xmlns="http://www.w3.org/2000/svg" width="750" height="1000" viewBox="0 0 750 1000">
  <defs>
    <clipPath id="face"><path d="M233 164C313 90 455 111 512 195C553 255 538 325 574 392C601 441 584 488 529 502C510 635 450 746 340 756C251 765 176 691 174 590C103 564 101 490 160 452C158 337 161 230 233 164Z"/></clipPath>
    <pattern id="c" width="23" height="23" patternUnits="userSpaceOnUse" patternTransform="rotate(75)"><circle cx="5" cy="5" r="4.5" fill="#00aeef"/></pattern>
    <pattern id="m" width="27" height="27" patternUnits="userSpaceOnUse" patternTransform="rotate(15)"><circle cx="7" cy="7" r="5.5" fill="#ec008c"/></pattern>
    <pattern id="y" width="31" height="31" patternUnits="userSpaceOnUse"><circle cx="9" cy="9" r="7" fill="#fff200"/></pattern>
    <pattern id="k" width="19" height="19" patternUnits="userSpaceOnUse" patternTransform="rotate(45)"><circle cx="4" cy="4" r="2.8" fill="#111"/></pattern>
  </defs>
  <rect width="750" height="1000" fill="#f6f2e9"/>
  <g clip-path="url(#face)" style="mix-blend-mode:multiply">
    <rect x="80" y="80" width="540" height="730" fill="url(#y)"/>
    <rect x="93" y="73" width="540" height="730" fill="url(#c)"/>
    <rect x="70" y="96" width="540" height="730" fill="url(#m)"/>
    <rect x="86" y="84" width="540" height="730" fill="url(#k)"/>
  </g>
  <path d="M233 164C313 90 455 111 512 195C553 255 538 325 574 392C601 441 584 488 529 502C510 635 450 746 340 756C251 765 176 691 174 590C103 564 101 490 160 452C158 337 161 230 233 164Z" fill="none" stroke="#111" stroke-width="2"/>
  <path d="M268 361C313 328 354 329 390 351M286 426C331 453 371 452 413 426M430 269C479 298 501 340 508 392" fill="none" stroke="#111" stroke-width="3"/>
  <text x="42" y="76" fill="#111" font-family="Arial Black, Arial, sans-serif" font-size="58" font-weight="900">HALFTONE</text>
  <text x="45" y="108" fill="#111" font-family="Courier New, monospace" font-size="11" letter-spacing="3">PORTRAIT / COLOR SEPARATION 054</text>
  <g transform="translate(42 825)" font-family="Courier New, monospace">
    <path d="M0 0H666" stroke="#111"/>
    <g transform="translate(0 28)"><circle cx="8" cy="8" r="8" fill="#00aeef"/><text x="27" y="12" font-size="11">CYAN 75°</text></g>
    <g transform="translate(166 28)"><circle cx="8" cy="8" r="8" fill="#ec008c"/><text x="27" y="12" font-size="11">MAGENTA 15°</text></g>
    <g transform="translate(357 28)"><circle cx="8" cy="8" r="8" fill="#fff200" stroke="#111"/><text x="27" y="12" font-size="11">YELLOW 0°</text></g>
    <g transform="translate(526 28)"><circle cx="8" cy="8" r="8" fill="#111"/><text x="27" y="12" font-size="11">BLACK 45°</text></g>
    <text x="0" y="95" font-size="10" letter-spacing="1.6">DOT GAIN IS NOT AN ERROR. IT IS THE IMAGE.</text>
    <text x="666" y="95" text-anchor="end" font-size="10">POSTER LAB / 2026</text>
  </g>
</svg>
